<svg width="322" height="169" viewBox="0 0 322 169" fill="none" xmlns="http://www.w3.org/2000/svg">
<path d="M10.0938 84.0391C14.9896 86.8255 20.237 88.2188 25.8359 88.2188C29.8984 88.2188 33.2448 87.3073 35.875 85.4844C38.6875 83.5573 40.0938 80.8359 40.0938 77.3203C40.0938 73.0755 37.4896 70.1719 32.2812 68.6094C27.151 67.099 20.0807 67.0859 11.0703 68.5703V38.6875H44.4688V45.25H18.2969V61.3828C26.4219 60.2891 33.2188 60.9271 38.6875 63.2969C44.8333 65.9531 47.9062 70.5104 47.9062 76.9688C47.9062 82.6719 45.4583 87.151 40.5625 90.4062C36.1875 93.3229 30.901 94.7812 24.7031 94.7812C18.1406 94.7812 12.5807 93.362 8.02344 90.5234L10.0938 84.0391ZM64.5078 38.7266H66.6562L91.0703 65.4844L115.445 38.7266H117.75L122.438 94H115.367L111.812 52.3984L91.1484 75.2891H90.3672L70.3281 52.75L67.2031 94H60.2109L64.5078 38.7266Z" fill="#EA9D4A"/>
<path d="M44.8496 138.608C43.4727 139.731 41.8125 140.293 39.8691 140.293C37.7695 140.293 36.0752 139.6 34.7861 138.213C33.5264 136.865 32.8965 135.117 32.8965 132.969C32.8965 130.635 33.8145 128.711 35.6504 127.197C37.3984 125.771 39.5273 125.059 42.0371 125.059C43.0234 125.059 43.8828 125.132 44.6152 125.278V117.134H47.3984V140H45.2744L44.8496 138.608ZM44.6152 127.754C43.5898 127.52 42.6475 127.402 41.7881 127.402C40.9287 127.402 40.1279 127.524 39.3857 127.769C38.6436 128.013 37.999 128.364 37.4521 128.823C36.2705 129.819 35.6797 131.143 35.6797 132.793C35.6797 134.238 36.0605 135.444 36.8223 136.411C37.6328 137.437 38.7119 137.949 40.0596 137.949C41.583 137.949 42.8428 137.568 43.8389 136.807C44.1514 136.562 44.4102 136.279 44.6152 135.957V127.754ZM51.5 132.808C51.5 131.694 51.7197 130.664 52.1592 129.717C52.5986 128.77 53.1943 127.949 53.9463 127.256C55.5381 125.791 57.4521 125.059 59.6885 125.059C61.9443 125.059 63.8242 125.757 65.3281 127.153C66.8516 128.569 67.6133 130.391 67.6133 132.617C67.6133 134.795 66.7979 136.626 65.167 138.11C63.585 139.565 61.6709 140.293 59.4248 140.293C57.1396 140.293 55.2549 139.6 53.7705 138.213C52.2568 136.807 51.5 135.005 51.5 132.808ZM54.2832 132.646C54.2832 133.408 54.4199 134.116 54.6934 134.771C54.9668 135.415 55.3428 135.977 55.8213 136.455C56.8369 137.451 58.126 137.949 59.6885 137.949C61.1436 137.949 62.3643 137.451 63.3506 136.455C64.3369 135.479 64.8301 134.253 64.8301 132.778C64.8301 131.235 64.3174 129.951 63.292 128.926C62.2764 127.91 60.9873 127.402 59.4248 127.402C57.9697 127.402 56.749 127.905 55.7627 128.911C54.7764 129.907 54.2832 131.152 54.2832 132.646ZM74.4395 133.95C73.9707 134.507 73.7363 135.029 73.7363 135.518C73.7363 135.996 73.9023 136.338 74.2344 136.543C74.5762 136.748 75.0205 136.914 75.5674 137.041C76.124 137.168 76.7539 137.275 77.457 137.363C78.1699 137.441 78.8926 137.529 79.625 137.627C80.3574 137.725 81.0752 137.852 81.7783 138.008C82.4912 138.154 83.126 138.359 83.6826 138.623C84.9033 139.229 85.5137 140.098 85.5137 141.23C85.5137 142.949 84.7471 144.385 83.2139 145.537C81.7686 146.602 80.0938 147.134 78.1895 147.134C76.3926 147.134 74.8594 146.782 73.5898 146.079C72.1152 145.259 71.3779 144.106 71.3779 142.622C71.3779 141.685 71.7393 140.752 72.4619 139.824C72.6768 139.551 72.9014 139.307 73.1357 139.092C71.7197 138.545 71.0117 137.671 71.0117 136.47C71.0117 134.937 71.6562 133.599 72.9453 132.456C72.4961 131.763 72.2715 131.006 72.2715 130.186C72.2715 129.355 72.4424 128.628 72.7842 128.003C73.1357 127.368 73.5996 126.836 74.1758 126.406C75.3574 125.508 76.7686 125.059 78.4092 125.059C80.0596 125.059 81.4561 125.508 82.5986 126.406C83.2432 125.791 84.249 125.371 85.6162 125.146C86.0166 125.088 86.3975 125.059 86.7588 125.059L86.6416 127.329C85.4795 127.456 84.5859 127.686 83.9609 128.018C84.293 128.662 84.459 129.355 84.459 130.098C84.459 130.84 84.2832 131.523 83.9316 132.148C83.5898 132.773 83.1309 133.301 82.5547 133.73C81.373 134.609 80.001 135.049 78.4385 135.049C76.8857 135.049 75.5527 134.683 74.4395 133.95ZM75.1426 128.809C74.957 129.16 74.8643 129.57 74.8643 130.039C74.8643 130.508 74.957 130.923 75.1426 131.284C75.3379 131.636 75.6016 131.934 75.9336 132.178C76.5879 132.646 77.4277 132.881 78.4531 132.881C79.9766 132.881 81.0215 132.363 81.5879 131.328C81.7734 130.986 81.8662 130.581 81.8662 130.112C81.8662 129.644 81.7686 129.229 81.5732 128.867C81.3877 128.506 81.1289 128.203 80.7969 127.959C80.1426 127.48 79.3027 127.241 78.2773 127.241C76.7539 127.241 75.709 127.764 75.1426 128.809ZM75.1719 139.619C74.498 140.361 74.1611 141.245 74.1611 142.271C74.1611 143.101 74.6445 143.75 75.6113 144.219C76.4219 144.6 77.2178 144.79 77.999 144.79C78.7803 144.79 79.4248 144.736 79.9326 144.629C80.4404 144.531 80.8994 144.37 81.3096 144.146C82.2568 143.638 82.7305 142.925 82.7305 142.007C82.7305 141.138 81.8906 140.557 80.2109 140.264C79.4883 140.137 78.6045 140.024 77.5596 139.927C76.5244 139.819 75.7285 139.717 75.1719 139.619ZM89.1318 136.411C90.2842 137.202 91.6025 137.72 93.0869 137.964C93.5557 138.042 93.9951 138.081 94.4053 138.081C94.8154 138.081 95.2012 138.042 95.5625 137.964C95.9238 137.886 96.251 137.759 96.5439 137.583C97.1689 137.202 97.4814 136.655 97.4814 135.942C97.4814 135.317 97.0225 134.795 96.1045 134.375C95.6943 134.189 95.2256 134.014 94.6982 133.848L93.0869 133.32C91.71 132.852 90.7578 132.412 90.2305 132.002C89.7129 131.592 89.3271 131.167 89.0732 130.728C88.8291 130.288 88.707 129.746 88.707 129.102C88.707 128.447 88.8584 127.866 89.1611 127.358C89.4736 126.841 89.8887 126.411 90.4062 126.069C91.4219 125.396 92.5986 125.059 93.9365 125.059C96.3389 125.059 98.2725 125.581 99.7373 126.626L98.6533 128.662C97.1494 127.734 95.6113 127.271 94.0391 127.271C92.9355 127.271 92.1592 127.588 91.71 128.223C91.5635 128.438 91.4902 128.706 91.4902 129.028C91.4902 129.351 91.6123 129.629 91.8564 129.863C92.1104 130.098 92.4424 130.308 92.8525 130.493C93.2627 130.669 93.7314 130.84 94.2588 131.006L95.8701 131.504C97.2373 131.963 98.1846 132.402 98.7119 132.822C99.7373 133.643 100.25 134.619 100.25 135.752C100.25 137.227 99.6299 138.374 98.3896 139.194C97.2861 139.927 95.8848 140.293 94.1855 140.293C92.4082 140.293 90.8018 139.941 89.3662 139.238C88.8877 139.014 88.4629 138.745 88.0918 138.433L89.1318 136.411Z" fill="#EA9D4A"/>
<path d="M219.68 45.6797L205.031 53.9609L202.922 47.6719L219.68 38.6875H226.906V94H219.68V45.6797ZM245.344 38.7266H247.492L271.906 65.4844L296.281 38.7266H298.586L303.273 94H296.203L292.648 52.3984L271.984 75.2891H271.203L251.164 52.75L248.039 94H241.047L245.344 38.7266Z" fill="#EA9D4A"/>
<path d="M240.617 136.865L241.13 138.931C239.909 139.839 238.112 140.293 235.739 140.293C233.474 140.293 231.696 139.6 230.407 138.213C229.147 136.865 228.518 135.029 228.518 132.705C228.518 130.537 229.226 128.721 230.642 127.256C232.077 125.791 233.869 125.059 236.018 125.059C237.951 125.059 239.523 125.503 240.734 126.392L239.768 128.574C238.664 127.754 237.326 127.344 235.754 127.344C234.406 127.344 233.317 127.861 232.487 128.896C231.696 129.873 231.301 131.084 231.301 132.529C231.301 134.082 231.716 135.361 232.546 136.367C233.415 137.422 234.611 137.949 236.135 137.949C237.658 137.949 239.152 137.588 240.617 136.865ZM253.889 138.125C252.102 139.57 250.222 140.293 248.249 140.293C246.872 140.293 245.715 139.932 244.777 139.209C243.771 138.428 243.269 137.407 243.269 136.147C243.269 133.55 244.997 131.816 248.454 130.947C249.851 130.596 251.525 130.4 253.479 130.361C253.42 128.77 252.644 127.832 251.149 127.549C250.661 127.451 250.202 127.402 249.772 127.402C249.343 127.402 248.962 127.422 248.63 127.461C248.298 127.5 247.956 127.554 247.604 127.622C246.833 127.769 246.179 127.949 245.642 128.164L244.865 126.084C246.232 125.4 247.883 125.059 249.816 125.059C252.834 125.059 254.821 126.021 255.778 127.944C256.101 128.608 256.262 129.399 256.262 130.317V134.99C256.262 135.986 256.335 136.65 256.481 136.982C256.745 137.617 257.209 138.022 257.873 138.198L257.463 140C255.637 140.215 254.445 139.59 253.889 138.125ZM248.615 133.247C247.707 133.589 247.053 133.97 246.652 134.39C246.252 134.8 246.052 135.244 246.052 135.723C246.052 136.201 246.12 136.567 246.257 136.821C246.394 137.065 246.574 137.271 246.799 137.437C247.258 137.778 247.795 137.949 248.41 137.949C249.025 137.949 249.577 137.886 250.065 137.759C250.563 137.622 251.022 137.446 251.442 137.231C252.263 136.821 252.941 136.313 253.479 135.708V132.544C251.154 132.661 249.533 132.896 248.615 133.247ZM261.652 127.607H260.085V125.791L263.688 123.081H264.436V125.352H268.625V127.607H264.436V133.525C264.436 135.186 264.646 136.318 265.065 136.924C265.485 137.52 266.306 137.886 267.526 138.022L267.102 140C264.172 140.371 262.438 139.214 261.901 136.528C261.735 135.728 261.652 134.863 261.652 133.936V127.607ZM271.511 136.411C272.663 137.202 273.981 137.72 275.466 137.964C275.935 138.042 276.374 138.081 276.784 138.081C277.194 138.081 277.58 138.042 277.941 137.964C278.303 137.886 278.63 137.759 278.923 137.583C279.548 137.202 279.86 136.655 279.86 135.942C279.86 135.317 279.401 134.795 278.483 134.375C278.073 134.189 277.604 134.014 277.077 133.848L275.466 133.32C274.089 132.852 273.137 132.412 272.609 132.002C272.092 131.592 271.706 131.167 271.452 130.728C271.208 130.288 271.086 129.746 271.086 129.102C271.086 128.447 271.237 127.866 271.54 127.358C271.853 126.841 272.268 126.411 272.785 126.069C273.801 125.396 274.978 125.059 276.315 125.059C278.718 125.059 280.651 125.581 282.116 126.626L281.032 128.662C279.528 127.734 277.99 127.271 276.418 127.271C275.314 127.271 274.538 127.588 274.089 128.223C273.942 128.438 273.869 128.706 273.869 129.028C273.869 129.351 273.991 129.629 274.235 129.863C274.489 130.098 274.821 130.308 275.231 130.493C275.642 130.669 276.11 130.84 276.638 131.006L278.249 131.504C279.616 131.963 280.563 132.402 281.091 132.822C282.116 133.643 282.629 134.619 282.629 135.752C282.629 137.227 282.009 138.374 280.769 139.194C279.665 139.927 278.264 140.293 276.564 140.293C274.787 140.293 273.181 139.941 271.745 139.238C271.267 139.014 270.842 138.745 270.471 138.433L271.511 136.411Z" fill="#EA9D4A"/>
<path d="M168.541 75.9492C167.035 77.471 165.188 78.2319 162.999 78.2319C161.233 78.2319 159.784 77.821 158.653 76.999C157.416 76.0957 156.797 74.8547 156.797 73.2759C156.797 71.1925 157.904 69.4795 160.118 68.1367C159.402 67.0788 159.043 66.1592 159.043 65.3779C159.043 64.5885 159.17 63.8927 159.422 63.2905C159.674 62.6883 160.024 62.1797 160.472 61.7646C161.399 60.902 162.64 60.4707 164.195 60.4707C165.928 60.4707 167.483 61.0241 168.858 62.1309L167.723 63.9375C166.941 63.2539 166.014 62.8063 164.939 62.5947C164.614 62.5296 164.292 62.4971 163.975 62.4971C163.178 62.4971 162.555 62.7127 162.107 63.144C161.66 63.5672 161.436 64.1776 161.436 64.9751C161.436 66.2853 163.149 68.389 166.575 71.2861L168.272 72.7021C168.915 71.335 169.236 69.7969 169.236 68.0879L171.519 68.0635C171.519 70.3096 171.006 72.3075 169.981 74.0571L173.387 76.6328L171.885 78.354L168.541 75.9492ZM166.905 74.7041C164.463 72.7917 162.628 71.1396 161.399 69.748C160.252 70.3828 159.56 71.1071 159.324 71.9209C159.235 72.2139 159.19 72.5801 159.19 73.0195C159.19 73.459 159.304 73.8822 159.532 74.2891C159.76 74.696 160.061 75.0418 160.435 75.3267C161.208 75.9126 162.055 76.2056 162.974 76.2056C164.577 76.2056 165.888 75.7051 166.905 74.7041Z" fill="#EA9D4A"/>
</svg>
