<svg width="26" height="881" viewBox="0 0 26 881" fill="none" xmlns="http://www.w3.org/2000/svg">
<path fill-rule="evenodd" clip-rule="evenodd" d="M12 881V35H14V881H12Z" fill="#BFBFBF"/>
<g filter="url(#filter0_d_346_273)">
<path fill-rule="evenodd" clip-rule="evenodd" d="M13 24C6.92487 24 2 19.0751 2 13C2 6.92487 6.92487 2 13 2C19.0751 2 24 6.92487 24 13C24 19.0751 19.0751 24 13 24ZM13 22C17.9706 22 22 17.9706 22 13C22 8.02944 17.9706 4 13 4C8.02944 4 4 8.02944 4 13C4 17.9706 8.02944 22 13 22ZM17.7071 11.7071L16.2929 10.2929L13 13.5858L9.70712 10.2929L8.29291 11.7071L13 16.4142L17.7071 11.7071Z" fill="#BFBFBF"/>
</g>
<defs>
<filter id="filter0_d_346_273" x="-1" y="-1" width="28" height="28" filterUnits="userSpaceOnUse" color-interpolation-filters="sRGB">
<feFlood flood-opacity="0" result="BackgroundImageFix"/>
<feColorMatrix in="SourceAlpha" type="matrix" values="0 0 0 0 0 0 0 0 0 0 0 0 0 0 0 0 0 0 127 0" result="hardAlpha"/>
<feMorphology radius="2" operator="dilate" in="SourceAlpha" result="effect1_dropShadow_346_273"/>
<feOffset/>
<feComposite in2="hardAlpha" operator="out"/>
<feColorMatrix type="matrix" values="0 0 0 0 1 0 0 0 0 1 0 0 0 0 1 0 0 0 0.01 0"/>
<feBlend mode="normal" in2="BackgroundImageFix" result="effect1_dropShadow_346_273"/>
<feBlend mode="normal" in="SourceGraphic" in2="effect1_dropShadow_346_273" result="shape"/>
</filter>
</defs>
</svg>
