<svg width="729" height="1292" viewBox="0 0 729 1292" fill="none" xmlns="http://www.w3.org/2000/svg">
<path fill-rule="evenodd" clip-rule="evenodd" d="M444.949 26.7363C480.595 -8.91211 538.394 -8.91211 574.04 26.7363C609.686 62.3848 609.686 120.188 574.04 155.836C538.394 191.485 480.595 191.485 444.949 155.836C409.303 120.188 409.303 62.3848 444.949 26.7363ZM545.089 55.6896C525.432 36.0316 493.557 36.0316 473.9 55.6896C454.244 75.3476 454.244 107.225 473.9 126.883C493.557 146.541 525.432 146.541 545.089 126.883C564.745 107.225 564.745 75.3476 545.089 55.6896ZM840.101 82.142C875.747 46.4935 933.546 46.4935 969.192 82.142C1004.84 117.79 1004.84 175.594 969.192 211.242C933.546 246.891 875.747 246.891 840.101 211.242C804.455 175.594 804.455 117.79 840.101 82.142ZM940.241 111.095C920.584 91.4373 888.709 91.4373 869.052 111.095C849.396 130.753 849.396 162.631 869.052 182.289C888.709 201.947 920.584 201.947 940.241 182.289C959.897 162.631 959.897 130.753 940.241 111.095ZM391.433 204.346C373.82 186.287 334.366 178.171 290.014 222.527L151.513 361.038L151.511 361.04C151.511 361.04 151.51 361.041 137.034 346.564C122.559 332.087 122.559 332.087 122.559 332.087L122.562 332.085L261.063 193.573C316.676 137.956 382.781 136.834 420.743 175.755C458.484 214.452 456.726 280.922 401.164 336.488C349.222 388.433 337.95 399.582 329.952 407.493C319.357 417.972 314.508 422.769 228.469 509.195C184.643 553.223 192.9 591.71 210.48 608.854C228.415 626.347 267.795 633.426 310.05 590.928C348.134 552.631 379.507 520.99 407.49 492.768C488.533 411.033 541.144 357.973 646.027 254.927C705.89 196.102 777.185 192.108 818.168 231.365C838.212 250.565 848.361 278.437 844.878 309.293C841.419 339.934 824.766 372.344 793.626 403.015C672.906 521.926 522.625 672.959 376.81 819.505C351.606 844.834 326.537 870.03 301.776 894.902C251.288 945.618 258.986 991.651 279.191 1012.13C299.146 1032.35 344.406 1040.65 395.792 989.049C505.989 878.387 563.463 821.053 624.173 760.49C655.773 728.967 688.251 696.569 729.496 655.32C756.646 628.168 786.795 614.69 815.833 613.466C844.79 612.246 871.102 623.335 889.668 642.409C928.004 681.794 929.463 749.104 873.194 805.377C820.622 857.952 806.421 871.906 796.537 881.617C783.683 894.247 778.13 899.704 704.979 973.604C679.417 999.428 669.119 1023.29 667.325 1041.97C665.553 1060.44 671.851 1075.1 682.215 1084.78C702.163 1103.41 746.888 1109.63 793.875 1062.65L920.154 936.365L921.319 935.2L921.355 935.164L921.39 935.129L921.423 935.096L921.454 935.065L921.484 935.035L921.513 935.006L921.612 934.907L921.633 934.886L921.652 934.867L921.737 934.782L921.745 934.774L921.752 934.767L921.764 934.755C921.764 934.755 921.765 934.754 936.241 949.231C950.716 963.707 950.715 963.708 950.715 963.708L950.704 963.72L950.697 963.727L950.688 963.736L950.604 963.82L950.584 963.839L950.563 963.86L950.464 963.959L950.436 963.988L950.406 964.018L950.374 964.05L950.341 964.083L950.306 964.117L950.27 964.153L949.105 965.318L822.826 1091.61C765.334 1149.09 695.139 1152.88 654.267 1114.7C634.221 1095.97 623.634 1068.63 626.569 1038.06C629.482 1007.71 645.483 975.508 675.881 944.798C749.059 870.87 754.86 865.169 768.006 852.247C778.044 842.381 792.366 828.304 844.242 776.424C887.766 732.898 880.16 691.343 860.33 670.97C849.812 660.165 834.765 653.651 817.557 654.376C800.43 655.098 779.606 663.113 758.447 684.273C717.139 725.585 684.641 758.003 653.034 789.534C592.354 850.066 534.957 907.323 424.803 1017.94C363.154 1079.85 291.2 1082.59 250.05 1040.89C209.15 999.442 211.851 927.199 272.761 866.013C297.498 841.164 322.552 815.985 347.744 790.667C493.55 644.13 644.011 492.916 764.896 373.842C791.142 347.992 802.038 323.798 804.193 304.7C806.325 285.815 800.155 270.809 789.847 260.936C770.128 242.047 724.595 235.126 674.721 284.135C570.042 386.981 517.634 439.836 436.658 521.503C408.662 549.739 377.25 581.418 339.083 619.799C285.315 673.876 219.967 675.301 181.894 638.169C143.464 600.689 144.431 535.582 199.454 480.307C285.473 393.899 290.471 388.955 301.251 378.291C309.353 370.276 320.721 359.03 372.213 307.534C416.617 263.127 409.266 222.63 391.433 204.346ZM908.175 489.971C943.821 454.323 1001.62 454.323 1037.27 489.971L1037.27 489.978C1072.91 525.646 1072.92 583.419 1037.27 619.071C1001.62 654.72 943.821 654.72 908.175 619.071C872.529 583.423 872.529 525.62 908.175 489.971ZM1008.31 518.918C988.651 499.266 956.781 499.269 937.126 518.924C917.47 538.582 917.47 570.46 937.126 590.118C956.783 609.776 988.658 609.776 1008.31 590.118C1027.97 570.464 1027.98 538.606 1008.31 518.918ZM26.7344 656.188C62.3802 620.54 120.179 620.54 155.825 656.188L155.831 656.195C191.465 691.863 191.474 749.636 155.825 785.288C120.179 820.937 62.3802 820.937 26.7344 785.288C-8.91146 749.64 -8.91146 691.837 26.7344 656.188ZM126.874 685.141C107.217 665.483 75.3421 665.483 55.6855 685.141C36.029 704.799 36.029 736.677 55.6855 756.335C75.3421 775.993 107.217 775.993 126.874 756.335C146.525 736.683 146.536 704.83 126.874 685.141ZM98.2307 1060.25C133.877 1024.6 191.675 1024.6 227.321 1060.25L227.328 1060.25C262.961 1095.92 262.971 1153.7 227.321 1189.35C191.675 1225 133.877 1225 98.2307 1189.35C62.5849 1153.7 62.5849 1095.9 98.2307 1060.25ZM198.37 1089.2C178.714 1069.54 146.838 1069.54 127.182 1089.2C107.525 1108.86 107.525 1140.74 127.182 1160.39C146.838 1180.05 178.714 1180.05 198.37 1160.39C218.021 1140.74 218.032 1108.89 198.37 1089.2ZM506.675 1136.16C542.321 1100.52 600.12 1100.52 635.765 1136.16C671.411 1171.81 671.411 1229.62 635.765 1265.26C600.12 1300.91 542.321 1300.91 506.675 1265.26C471.029 1229.62 471.029 1171.81 506.675 1136.16ZM606.814 1165.12C587.158 1145.46 555.282 1145.46 535.626 1165.12C515.969 1184.78 515.969 1216.65 535.626 1236.31C555.282 1255.97 587.158 1255.97 606.814 1236.31C626.471 1216.65 626.471 1184.78 606.814 1165.12Z" fill="url(#paint0_linear_9_247)"/>
<defs>
<linearGradient id="paint0_linear_9_247" x1="-0.0064516" y1="646.003" x2="1064" y2="646.003" gradientUnits="userSpaceOnUse">
<stop offset="0.201" stop-color="#ED1C24"/>
<stop offset="0.5026" stop-color="#FEBD12"/>
<stop offset="0.8199" stop-color="#ED1C24"/>
</linearGradient>
</defs>
</svg>
